<svg xmlns="http://www.w3.org/2000/svg" viewBox="0 0 741.16 160.06"><defs><style>.cls-1{fill:#1d92eb;}.cls-2{fill:#4fe14f;}.cls-3{fill:#fff;}</style></defs><g id="Capa_2" data-name="Capa 2"><g id="Capa_1-2" data-name="Capa 1"><g id="Capa_2-2" data-name="Capa 2"><g id="Layer_1" data-name="Layer 1"><path class="cls-1" d="M276.06,160l-44.69-.07q-24.69,0-42.75-8.12a65.33,65.33,0,0,1-20.45-14.15L197,93c.58,9.34,3.87,16.69,9.93,22q10.06,8.79,29.49,8.8h26.51Z"/><path class="cls-2" d="M276.06,160,237.43,0H192.86L129.3,98.74A45.52,45.52,0,0,1,111.66,117q-12,7-28.46,7H7.2L0,160.06H81.83c2.89,0,5.73-.1,8.53-.26q24.08-1.45,43.36-11.17A88.92,88.92,0,0,0,152,136.38a86.08,86.08,0,0,0,7.91-7.84,83.74,83.74,0,0,0,8.4-11.25c.13-.2,21.08-35.77,39.88-67.68L231,160Z"/><path class="cls-1" d="M135.88,67l28.81-44.63a65,65,0,0,0-20.46-14.2Q126.17.05,101.49.05H32L9.53,112.4H54.86L70,36.17H96.46q19.42,0,29.49,8.8Q135,52.92,135.88,67Z"/><path class="cls-3" d="M314.75,3.78H338.8a34.79,34.79,0,0,1,16.07,3.58,26.35,26.35,0,0,1,10.88,10.07,28.46,28.46,0,0,1,3.87,14.88,28.46,28.46,0,0,1-3.87,14.88,26.35,26.35,0,0,1-10.88,10.07,34.8,34.8,0,0,1-16.07,3.59H314.75Zm23.56,50a26.39,26.39,0,0,0,12.19-2.69,19.43,19.43,0,0,0,8.12-7.54,21.67,21.67,0,0,0,2.85-11.21,21.67,21.67,0,0,0-2.85-11.21,19.43,19.43,0,0,0-8.12-7.54,26.39,26.39,0,0,0-12.19-2.69H322.9V53.75Z"/><path class="cls-3" d="M382.1,3.78h8.15V60.85H382.1Z"/><path class="cls-3" d="M456.45,3.78V60.85h-6.68L415.52,18.29V60.85h-8.15V3.78h6.69L448.3,46.33V3.78Z"/><path class="cls-3" d="M509.94,46.58H479.61l-6.28,14.27h-8.4L490.78,3.78h8.07l25.93,57.07h-8.56Zm-2.86-6.52-12.31-28-12.31,28Z"/><path class="cls-3" d="M586.17,60.85l-.08-41.58L565.46,53.92h-3.75L541.08,19.51V60.85h-7.82V3.78h6.68l23.81,40.11L587.23,3.78h6.69L594,60.85Z"/><path class="cls-3" d="M611.12,3.78h8.15V60.85h-8.15Z"/><path class="cls-3" d="M679,53.75v7.1H631.34V55.3l35.87-44.43h-35.3V3.78H678V9.32L642.26,53.75Z"/><path class="cls-3" d="M726.32,46.58H696l-6.28,14.27h-8.39L707.16,3.78h8.07l25.93,57.07H732.6Zm-2.85-6.52-12.31-28-12.31,28Z"/><path class="cls-3" d="M351.11,144.42H320.78l-6.27,14.26h-8.4L332,101.61h8l26,57.07h-8.56Zm-2.85-6.53-12.31-28-12.31,28Z"/><path class="cls-3" d="M412.59,158.68l-12.31-17.52c-1.52.11-2.72.16-3.59.16h-14.1v17.36h-8.16V101.61h22.26q11.08,0,17.45,5.3t6.36,14.6a19.08,19.08,0,0,1-3.26,11.25,18.4,18.4,0,0,1-9.3,6.76l13.54,19.16Zm-4.32-27.63q4.08-3.35,4.08-9.54t-4.08-9.5q-4.08-3.3-11.82-3.3H382.59v25.68h13.86q7.74,0,11.82-3.34Z"/><path class="cls-3" d="M470.07,144.42H439.74l-6.28,14.26h-8.4l25.85-57.07H459l25.93,57.07h-8.56Zm-2.86-6.53-12.31-28-12.31,28Z"/><path class="cls-3" d="M498,152.81q-6.36-6.51-6.36-18.75V101.61h8.16v32.13q0,18.34,16.06,18.34,7.83,0,12-4.52T532,133.74V101.61h7.91v32.45q0,12.31-6.36,18.8t-17.77,6.48Q504.4,159.34,498,152.81Z"/><path class="cls-3" d="M566.72,155.55a27.92,27.92,0,0,1-10.8-10.44,30.59,30.59,0,0,1,0-29.92,27.89,27.89,0,0,1,10.84-10.44A31.68,31.68,0,0,1,582.25,101a32.38,32.38,0,0,1,12.23,2.24,25,25,0,0,1,9.46,6.65l-5.3,5.13a21.3,21.3,0,0,0-16.06-6.76,23.32,23.32,0,0,0-11.5,2.85,20.72,20.72,0,0,0-8,7.87,23.2,23.2,0,0,0,0,22.42,20.72,20.72,0,0,0,8,7.87,23.32,23.32,0,0,0,11.5,2.85,21.3,21.3,0,0,0,16.06-6.85l5.3,5.14a25.38,25.38,0,0,1-9.5,6.68,32,32,0,0,1-12.27,2.29A31.68,31.68,0,0,1,566.72,155.55Z"/><path class="cls-3" d="M624.57,155.55a28.05,28.05,0,0,1-10.89-10.48,30.14,30.14,0,0,1,0-29.84,28.05,28.05,0,0,1,10.89-10.48,33.73,33.73,0,0,1,31.06,0,27.85,27.85,0,0,1,10.85,10.44,30.59,30.59,0,0,1,0,29.92,27.85,27.85,0,0,1-10.85,10.44,33.73,33.73,0,0,1-31.06,0Zm26.86-6.32a20.9,20.9,0,0,0,7.91-7.87,23.1,23.1,0,0,0,0-22.42,20.9,20.9,0,0,0-7.91-7.87,22.41,22.41,0,0,0-11.29-2.85,22.94,22.94,0,0,0-11.37,2.85,20.72,20.72,0,0,0-8,7.87,23.1,23.1,0,0,0,0,22.42,20.72,20.72,0,0,0,8,7.87,22.94,22.94,0,0,0,11.37,2.85A22.41,22.41,0,0,0,651.43,149.23Z"/></g></g></g></g></svg>